# 3ds Max Wavefront OBJ Exporter v0.97b - (c)2007 guruware
# File Created: 29.05.2019 03:12:07

#
# object Box001
#

v  0.7510 -0.3579 0.1408
v  0.3916 -0.3579 0.1408
v  0.3916 -0.3579 -0.1408
v  0.7510 -0.3579 -0.1408
v  0.7510 0.3579 0.1408
v  0.7510 0.3579 -0.1408
v  0.3916 0.3579 -0.1408
v  0.3916 0.3579 0.1408
v  0.7510 0.1193 -0.1408
v  0.7510 0.1193 0.1408
v  0.7510 -0.1193 0.1408
v  0.7510 -0.1193 -0.1408
v  0.3916 0.1193 -0.2840
v  0.7510 0.1193 -0.2840
v  0.7510 -0.1193 -0.2840
v  0.3916 -0.1193 -0.2840
v  -0.7510 0.1193 0.1408
v  -0.7510 0.1193 -0.1408
v  -0.7510 -0.1193 -0.1408
v  -0.7510 -0.1193 0.1408
v  0.7510 0.1193 0.2840
v  0.3916 0.1193 0.2840
v  0.3916 -0.1193 0.2840
v  0.7510 -0.1193 0.2840
v  0.3916 0.3579 -0.2840
v  0.7510 0.3579 -0.2840
v  0.7510 -0.3579 -0.2840
v  0.3916 -0.3579 -0.2840
v  0.3916 0.1193 -0.1408
v  0.3916 0.1193 0.1408
v  0.3916 -0.1193 0.1408
v  0.3916 -0.1193 -0.1408
v  0.7510 0.3579 0.2840
v  0.3916 0.3579 0.2840
v  0.3916 -0.3579 0.2840
v  0.7510 -0.3579 0.2840
v  -0.2597 -0.1193 -0.1408
v  -0.2597 0.1193 -0.1408
v  -0.2597 -0.1193 0.1408
v  -0.2597 0.1193 0.1408
v  -0.5873 -0.1193 -0.1408
v  -0.5873 0.1193 -0.1408
v  -0.4235 0.1193 -0.1408
v  -0.4235 -0.1193 -0.1408
v  -0.5873 -0.1193 0.1408
v  -0.4235 -0.1193 0.1408
v  -0.5873 0.1193 0.1408
v  -0.4235 0.1193 0.1408
v  -0.7510 0.2625 -0.1408
v  -0.7510 0.2625 0.1408
v  -0.5873 0.2625 0.1408
v  -0.5873 0.2625 -0.1408
v  -0.2597 0.2625 0.1408
v  -0.2597 0.2625 -0.1408
v  -0.4235 0.2625 -0.1408
v  -0.4235 0.2625 0.1408
# 56 vertices

vn 0.0000 -1.0000 -0.0000
vn 0.0000 1.0000 -0.0000
vn 1.0000 0.0000 -0.0000
vn -0.0000 0.0000 -1.0000
vn -1.0000 0.0000 0.0000
vn 0.0000 0.0000 1.0000
# 6 vertex normals

vt 1.0000 0.0000 0.0000
vt 0.0000 0.0000 0.0000
vt 1.0000 1.0000 0.0000
vt 0.0000 1.0000 0.0000
vt 0.0000 0.0000 0.0000
vt 1.0000 0.0000 0.0000
vt 0.0000 1.0000 0.0000
vt 1.0000 1.0000 0.0000
vt 0.0000 0.0000 0.0000
vt 1.0000 0.0000 0.0000
vt 0.0000 1.0000 0.0000
vt 1.0000 1.0000 0.0000
vt 0.0000 0.0000 0.0000
vt 1.0000 0.0000 0.0000
vt 0.0000 1.0000 0.0000
vt 1.0000 1.0000 0.0000
vt 0.0000 0.0000 0.0000
vt 1.0000 0.0000 0.0000
vt 0.0000 1.0000 0.0000
vt 1.0000 1.0000 0.0000
vt 0.0000 0.0000 0.0000
vt 1.0000 0.0000 0.0000
vt 0.0000 1.0000 0.0000
vt 1.0000 1.0000 0.0000
vt 1.0000 0.3333 0.0000
vt 1.0000 0.6667 0.0000
vt 0.0000 0.3333 0.0000
vt 0.0000 0.6667 0.0000
vt 0.0000 0.6667 0.0000
vt 0.0000 0.3333 0.0000
vt 1.0000 0.6667 0.0000
vt 1.0000 0.3333 0.0000
vt 1.0000 0.3333 0.0000
vt 1.0000 0.6667 0.0000
vt 0.0000 0.3333 0.0000
vt 0.0000 0.6667 0.0000
vt 1.0000 0.3333 0.0000
vt 1.0000 0.6667 0.0000
vt 0.0000 0.3333 0.0000
vt 0.0000 0.6667 0.0000
vt 0.0000 0.6667 0.0000
vt 0.0000 0.3333 0.0000
vt 1.0000 0.3333 0.0000
vt 1.0000 0.6667 0.0000
vt 0.0000 0.6667 0.0000
vt 0.0000 0.3333 0.0000
vt 1.0000 0.3333 0.0000
vt 1.0000 0.6667 0.0000
vt 0.0000 0.6667 0.0000
vt 0.0000 0.6667 0.0000
vt 0.0000 0.3333 0.0000
vt 0.0000 0.3333 0.0000
vt 1.0000 0.3333 0.0000
vt 1.0000 0.3333 0.0000
vt 1.0000 0.6667 0.0000
vt 1.0000 0.6667 0.0000
vt 0.0000 0.6667 0.0000
vt 1.0000 0.6667 0.0000
vt 1.0000 0.6667 0.0000
vt 0.0000 0.6667 0.0000
vt 0.0000 0.6667 0.0000
vt 0.0000 0.6667 0.0000
vt 1.0000 0.6667 0.0000
vt 1.0000 0.6667 0.0000
vt 0.0000 0.0000 0.0000
vt 1.0000 0.0000 0.0000
vt 1.0000 0.3333 0.0000
vt 1.0000 0.6667 0.0000
vt 1.0000 1.0000 0.0000
vt 0.0000 1.0000 0.0000
vt 0.0000 0.6667 0.0000
vt 0.0000 0.3333 0.0000
vt 0.0000 0.0000 0.0000
vt 1.0000 0.0000 0.0000
vt 1.0000 0.3333 0.0000
vt 1.0000 0.6667 0.0000
vt 1.0000 1.0000 0.0000
vt 0.0000 1.0000 0.0000
vt 0.0000 0.6667 0.0000
vt 0.0000 0.3333 0.0000
# 80 texture coords

o Box001
g Box001
s 2
f -56/-80/-6 -55/-78/-6 -54/-77/-6 
f -54/-77/-6 -53/-79/-6 -56/-80/-6 
s 4
f -52/-76/-5 -51/-75/-5 -50/-73/-5 
f -50/-73/-5 -49/-74/-5 -52/-76/-5 
s 8
f -48/-55/-4 -47/-52/-4 -46/-51/-4 
f -46/-51/-4 -45/-56/-4 -48/-55/-4 
s 16
f -44/-13/-3 -43/-10/-3 -42/-9/-3 
f -42/-9/-3 -41/-14/-3 -44/-13/-3 
s 32
f -40/-37/-2 -39/-40/-2 -38/-39/-2 
f -38/-39/-2 -37/-38/-2 -40/-37/-2 
s 64
f -36/-5/-1 -35/-2/-1 -34/-1/-1 
f -34/-1/-1 -33/-6/-1 -36/-5/-1 
s 8
f -51/-69/-4 -52/-70/-4 -47/-52/-4 
f -47/-52/-4 -48/-55/-4 -51/-69/-4 
f -56/-72/-4 -53/-71/-4 -45/-56/-4 
f -45/-56/-4 -46/-51/-4 -56/-72/-4 
s 16
f -32/-12/-3 -31/-11/-3 -43/-10/-3 
f -43/-10/-3 -44/-13/-3 -32/-12/-3 
f -30/-16/-3 -29/-15/-3 -41/-14/-3 
f -41/-14/-3 -42/-9/-3 -30/-16/-3 
s 32
f -49/-61/-2 -50/-62/-2 -28/-45/-2 
f -28/-45/-2 -27/-43/-2 -49/-61/-2 
f -54/-64/-2 -55/-63/-2 -26/-44/-2 
f -26/-44/-2 -25/-46/-2 -54/-64/-2 
s 64
f -24/-4/-1 -23/-3/-1 -35/-2/-1 
f -35/-2/-1 -36/-5/-1 -24/-4/-1 
f -22/-8/-1 -21/-7/-1 -33/-6/-1 
f -33/-6/-1 -34/-1/-1 -22/-8/-1 
s off
f -25/-46/-3 -20/-35/-3 -19/-36/-3 
f -19/-36/-3 -28/-45/-3 -25/-46/-3 
f -26/-44/-6 -18/-34/-6 -20/-35/-6 
f -20/-35/-6 -25/-46/-6 -26/-44/-6 
f -27/-43/-1 -17/-33/-1 -18/-34/-1 
f -18/-34/-1 -26/-44/-1 -27/-43/-1 
f -28/-45/-5 -19/-36/-5 -17/-33/-5 
f -17/-33/-5 -27/-43/-5 -28/-45/-5 
f -16/-29/-3 -15/-31/-3 -14/-32/-3 
f -14/-32/-3 -13/-30/-3 -16/-29/-3 
f -12/-27/-6 -16/-29/-6 -13/-30/-6 
f -13/-30/-6 -11/-28/-6 -12/-27/-6 
f -10/-25/-1 -12/-27/-1 -11/-28/-1 
f -11/-28/-1 -9/-26/-1 -10/-25/-1 
f -15/-31/-5 -10/-25/-5 -9/-26/-5 
f -9/-26/-5 -14/-32/-5 -15/-31/-5 
f -38/-39/-3 -39/-40/-3 -15/-31/-3 
f -15/-31/-3 -16/-29/-3 -38/-39/-3 
f -19/-36/-3 -20/-35/-3 -13/-30/-3 
f -13/-30/-3 -14/-32/-3 -19/-36/-3 
f -37/-38/-6 -38/-39/-6 -16/-29/-6 
f -16/-29/-6 -12/-27/-6 -37/-38/-6 
f -20/-35/-6 -18/-34/-6 -11/-28/-6 
f -11/-28/-6 -13/-30/-6 -20/-35/-6 
f -40/-37/-1 -37/-38/-1 -12/-27/-1 
f -12/-27/-1 -10/-25/-1 -40/-37/-1 
f -18/-34/-1 -17/-33/-1 -9/-26/-1 
f -9/-26/-1 -11/-28/-1 -18/-34/-1 
f -8/-24/-5 -7/-23/-5 -6/-22/-5 
f -6/-22/-5 -5/-21/-5 -8/-24/-5 
f -4/-17/-5 -3/-20/-5 -2/-19/-5 
f -2/-19/-5 -1/-18/-5 -4/-17/-5 
f -39/-40/-2 -40/-37/-2 -7/-23/-2 
f -7/-23/-2 -8/-24/-2 -39/-40/-2 
f -40/-37/-1 -10/-25/-1 -6/-22/-1 
f -6/-22/-1 -7/-23/-1 -40/-37/-1 
f -10/-25/-4 -15/-31/-4 -5/-21/-4 
f -5/-21/-4 -6/-22/-4 -10/-25/-4 
f -15/-31/-3 -39/-40/-3 -8/-24/-3 
f -8/-24/-3 -5/-21/-3 -15/-31/-3 
f -19/-36/-3 -14/-32/-3 -2/-19/-3 
f -2/-19/-3 -3/-20/-3 -19/-36/-3 
f -14/-32/-2 -9/-26/-2 -1/-18/-2 
f -1/-18/-2 -2/-19/-2 -14/-32/-2 
f -9/-26/-1 -17/-33/-1 -4/-17/-1 
f -4/-17/-1 -1/-18/-1 -9/-26/-1 
f -17/-33/-4 -19/-36/-4 -3/-20/-4 
f -3/-20/-4 -4/-17/-4 -17/-33/-4 
f -53/-68/-6 -54/-67/-6 -29/-15/-6 
f -29/-15/-6 -30/-16/-6 -53/-68/-6 
f -54/-67/-2 -25/-48/-2 -41/-14/-2 
f -41/-14/-2 -29/-15/-2 -54/-67/-2 
f -25/-48/-2 -28/-47/-2 -44/-13/-2 
f -44/-13/-2 -41/-14/-2 -25/-48/-2 
f -28/-47/-2 -50/-65/-2 -32/-12/-2 
f -32/-12/-2 -44/-13/-2 -28/-47/-2 
f -50/-65/-5 -51/-66/-5 -31/-11/-5 
f -31/-11/-5 -32/-12/-5 -50/-65/-5 
f -51/-66/-4 -48/-53/-4 -43/-10/-4 
f -43/-10/-4 -31/-11/-4 -51/-66/-4 
f -48/-53/-4 -45/-54/-4 -42/-9/-4 
f -42/-9/-4 -43/-10/-4 -48/-53/-4 
f -45/-54/-4 -53/-68/-4 -30/-16/-4 
f -30/-16/-4 -42/-9/-4 -45/-54/-4 
f -55/-60/-6 -56/-59/-6 -21/-7/-6 
f -21/-7/-6 -22/-8/-6 -55/-60/-6 
f -56/-59/-4 -46/-49/-4 -33/-6/-4 
f -33/-6/-4 -21/-7/-4 -56/-59/-4 
f -46/-49/-4 -47/-50/-4 -36/-5/-4 
f -36/-5/-4 -33/-6/-4 -46/-49/-4 
f -47/-50/-4 -52/-57/-4 -24/-4/-4 
f -24/-4/-4 -36/-5/-4 -47/-50/-4 
f -52/-57/-5 -49/-58/-5 -23/-3/-5 
f -23/-3/-5 -24/-4/-5 -52/-57/-5 
f -49/-58/-2 -27/-41/-2 -35/-2/-2 
f -35/-2/-2 -23/-3/-2 -49/-58/-2 
f -27/-41/-2 -26/-42/-2 -34/-1/-2 
f -34/-1/-2 -35/-2/-2 -27/-41/-2 
f -26/-42/-2 -55/-60/-2 -22/-8/-2 
f -22/-8/-2 -34/-1/-2 -26/-42/-2 
# 108 faces

