# 3ds Max Wavefront OBJ Exporter v0.97b - (c)2007 guruware
# File Created: 26.05.2019 19:51:32

#
# object Box001
#

v  -4.0000 0.0000 15.0000
v  -4.0000 0.0000 -15.0000
v  4.0000 0.0000 -15.0000
v  4.0000 0.0000 15.0000
v  -4.0000 1.0000 15.0000
v  4.0000 1.0000 15.0000
v  4.0000 1.0000 -15.0000
v  -4.0000 1.0000 -15.0000
# 8 vertices

vn 0.0000 -1.0000 -0.0000
vn 0.0000 1.0000 -0.0000
vn 0.0000 0.0000 1.0000
vn 1.0000 0.0000 -0.0000
vn 0.0000 0.0000 -1.0000
vn -1.0000 0.0000 -0.0000
# 6 vertex normals

vt 0.0000 0.0000 0.0000
vt 1.0000 0.0000 0.0000
vt 0.0000 1.0000 0.0000
vt 1.0000 1.0000 0.0000
vt 0.0000 0.0000 0.0000
vt 1.0000 0.0000 0.0000
vt 0.0000 1.0000 0.0000
vt 1.0000 1.0000 0.0000
vt 0.0000 0.0000 0.0000
vt 1.0000 0.0000 0.0000
vt 0.0000 1.0000 0.0000
vt 1.0000 1.0000 0.0000
# 12 texture coords

o Box001
g Box001
s 2
f -8/-3/-6 -7/-1/-6 -6/-2/-6 
f -6/-2/-6 -5/-4/-6 -8/-3/-6 
s 4
f -4/-4/-5 -3/-3/-5 -2/-1/-5 
f -2/-1/-5 -1/-2/-5 -4/-4/-5 
s 8
f -8/-8/-4 -5/-7/-4 -3/-5/-4 
f -3/-5/-4 -4/-6/-4 -8/-8/-4 
s 16
f -5/-12/-3 -6/-11/-3 -2/-9/-3 
f -2/-9/-3 -3/-10/-3 -5/-12/-3 
s 32
f -6/-8/-2 -7/-7/-2 -1/-5/-2 
f -1/-5/-2 -2/-6/-2 -6/-8/-2 
s 64
f -7/-12/-1 -8/-11/-1 -4/-9/-1 
f -4/-9/-1 -1/-10/-1 -7/-12/-1 
# 12 faces

